<svg xmlns="http://www.w3.org/2000/svg" width="278" height="278" fill="none" viewBox="0 0 278 278">
  <rect width="277.318" height="277.318" fill="#FE5656" rx="64.77"/>
  <path fill="#fff" d="M98.867 97.282c13.334-23.095 20.001-34.643 28.8-38.341a28.361 28.361 0 0 1 21.981 0c8.799 3.698 15.466 15.246 28.8 38.341l32.313 55.968c13.334 23.095 20.001 34.643 18.805 44.112a28.363 28.363 0 0 1-10.991 19.037c-7.602 5.771-20.936 5.771-47.605 5.771h-64.626c-26.668 0-40.002 0-47.604-5.771a28.363 28.363 0 0 1-10.991-19.037c-1.196-9.469 5.47-21.017 18.805-44.112l32.313-55.968Z"/>
  <rect width="18.202" height="67.087" x="129.554" y="101.151" fill="#FE5656" rx="5.673"/>
  <rect width="18.202" height="18.202" x="129.554" y="181.24" fill="#FE5656" rx="5.673"/>
</svg>
